<?xml version="1.0" standalone="no"?>
<svg xmlns:xlink="http://www.w3.org/1999/xlink" id="wave" style="transform:rotate(180deg); transition: 0.3s" viewBox="0 0 1440 290" version="1.1" xmlns="http://www.w3.org/2000/svg">
<defs>
<linearGradient id="sw-gradient-0" x1="0" x2="0" y1="1" y2="0">
<stop stop-color="rgba(106, 222, 235, 1)" offset="0%"/>
<stop stop-color="rgba(106, 222, 235, 1)" offset="100%"/>
</linearGradient>
</defs>
<path style="transform:translate(0, 0px); opacity:1" fill="url(#sw-gradient-0)" d="M0,98L80,106.2C160,114,320,131,480,114.3C640,98,800,49,960,65.3C1120,82,1280,163,1440,179.7C1600,196,1760,147,1920,179.7C2080,212,2240,327,2400,343C2560,359,2720,278,2880,228.7C3040,180,3200,163,3360,147C3520,131,3680,114,3840,130.7C4000,147,4160,196,4320,220.5C4480,245,4640,245,4800,269.5C4960,294,5120,343,5280,343C5440,343,5600,294,5760,245C5920,196,6080,147,6240,122.5C6400,98,6560,98,6720,89.8C6880,82,7040,65,7200,65.3C7360,65,7520,82,7680,147C7840,212,8000,327,8160,383.8C8320,441,8480,441,8640,383.8C8800,327,8960,212,9120,163.3C9280,114,9440,131,9600,114.3C9760,98,9920,49,10080,49C10240,49,10400,98,10560,171.5C10720,245,10880,343,11040,343C11200,343,11360,245,11440,196L11520,147L11520,490L11440,490C11360,490,11200,490,11040,490C10880,490,10720,490,10560,490C10400,490,10240,490,10080,490C9920,490,9760,490,9600,490C9440,490,9280,490,9120,490C8960,490,8800,490,8640,490C8480,490,8320,490,8160,490C8000,490,7840,490,7680,490C7520,490,7360,490,7200,490C7040,490,6880,490,6720,490C6560,490,6400,490,6240,490C6080,490,5920,490,5760,490C5600,490,5440,490,5280,490C5120,490,4960,490,4800,490C4640,490,4480,490,4320,490C4160,490,4000,490,3840,490C3680,490,3520,490,3360,490C3200,490,3040,490,2880,490C2720,490,2560,490,2400,490C2240,490,2080,490,1920,490C1760,490,1600,490,1440,490C1280,490,1120,490,960,490C800,490,640,490,480,490C320,490,160,490,80,490L0,490Z"/>
</svg>
